<svg width="602" height="599" viewBox="0 0 602 599" fill="none" xmlns="http://www.w3.org/2000/svg">
<path d="M309.542 598.999C470.596 598.999 601.155 468.439 601.155 307.386C601.155 146.333 470.596 15.773 309.542 15.773C148.489 15.773 17.9292 146.333 17.9292 307.386C17.9292 468.439 148.489 598.999 309.542 598.999Z" fill="#5E3BEE"/>
<path d="M314.26 0.409973C420.653 0.409973 530.924 59.156 582.017 155.91C581.573 153.665 331.146 334.136 330.904 337.45C327.884 336.31 3.69701 371.15 5.45901 373.303C1.82154 353.971 -0.00603485 334.341 1.49706e-05 314.67C1.49706e-05 141.11 140.7 0.409973 314.26 0.409973Z" fill="#7756FF"/>
</svg>
