<svg width="21" height="16" viewBox="0 0 21 16" fill="none" xmlns="http://www.w3.org/2000/svg">
<path d="M1 2.74951C1 2.28551 1.20013 1.84052 1.55637 1.51242C1.91261 1.18432 2.39577 1 2.89957 1H18.1004C18.6042 1 19.0874 1.18432 19.4436 1.51242C19.7999 1.84052 20 2.28551 20 2.74951V13.2492C20.0002 13.479 19.9512 13.7067 19.8558 13.9191C19.7604 14.1315 19.6205 14.3245 19.4441 14.4871C19.2677 14.6497 19.0582 14.7787 18.8277 14.8667C18.5971 14.9547 18.35 15 18.1004 15H2.89957C2.65 15 2.40287 14.9547 2.17231 14.8667C1.94175 14.7787 1.73228 14.6497 1.55587 14.4871C1.37946 14.3245 1.23957 14.1315 1.14419 13.9191C1.04881 13.7067 0.999813 13.479 1 13.2492V2.74951Z" stroke="white" stroke-linecap="round" stroke-linejoin="round"/>
<path d="M1 4.49899L8.12518 9.74883C8.79917 10.2456 9.63672 10.5163 10.5 10.5163C11.3633 10.5163 12.2008 10.2456 12.8748 9.74883L20 4.49899" stroke="white" stroke-linecap="round" stroke-linejoin="round"/>
</svg>
